<svg width="117" height="73" viewBox="0 0 117 73" fill="none" xmlns="http://www.w3.org/2000/svg">
<path d="M104.293 11.9527H106.562C110.052 11.9527 112.89 9.1138 112.89 5.62477V4.92165H109.375C107.388 4.92165 105.613 5.84451 104.453 7.28064V7.03102C104.453 3.54177 101.614 0.703125 98.1247 0.703125H94.6091V1.40625C94.6091 4.8955 97.448 7.73415 100.937 7.73415H103.046V10.2654C103.046 11.5574 102.749 12.8547 102.189 14.0183C102.025 14.3593 101.837 14.6863 101.619 15.015C101.489 15.2259 101.347 15.4281 101.194 15.6161L100.076 16.7376C99.3567 13.215 96.2243 10.5465 92.4995 10.5465H90.3901V11.2496C90.3901 15.4525 93.7616 18.8749 97.9416 18.9752C96.6953 20.6856 96.015 22.751 96.015 24.8905V26.3477C95.9131 26.4778 95.8182 26.6096 95.7426 26.7415L94.9094 28.1319L93.9056 27.1299V25.46C93.9056 24.3069 93.5664 23.1871 92.923 22.2221C92.4519 21.5155 91.6644 21.0936 90.8189 21.0936C89.6236 21.0936 88.6234 21.9268 88.3562 23.043C88.2542 22.8356 88.1681 22.6211 88.1171 22.3979C87.7304 20.6419 86.7443 19.051 85.338 17.9137C83.0423 16.0821 79.7427 15.6637 77.0378 16.8977C75.9936 17.3829 75.0849 18.072 74.3395 18.9386L74.2182 19.0757C72.8577 20.6647 72.1089 22.6933 72.1089 24.7853C72.1089 25.9437 72.3321 27.0722 72.7733 28.1392C73.2128 29.2044 73.8526 30.1607 74.6771 30.9833L75.7739 32.0802C76.6528 32.9591 77.3261 34.0489 77.7216 35.2302C78.2524 36.8245 79.2034 38.2536 80.4708 39.3628L81.9333 40.6425C83.5646 42.0681 85.5263 43.1351 87.6024 43.7292C88.919 44.1072 90.2831 44.297 91.6559 44.297H92.2887C94.8481 44.297 97.2635 43.0542 98.7521 40.973C99.2548 40.2699 99.6292 39.4964 99.8788 38.672H102.051L103.055 39.6757C103.769 40.3876 104.716 40.7814 105.725 40.7814C106.914 40.7814 108.044 40.2154 108.749 39.2696L111.644 35.4042C111.999 34.9331 112.187 34.3759 112.187 33.7923V33.6306C112.187 32.9117 111.906 32.2367 111.398 31.7269C110.888 31.2171 110.211 30.9376 109.494 30.9376C108.786 30.9376 108.091 31.2259 107.59 31.7269L106.71 32.6075L103.317 26.7944C102.934 26.1335 102.378 25.5816 101.71 25.1948C101.046 24.8116 100.287 24.6095 99.5167 24.6095C98.7714 24.6095 98.0542 24.8011 97.4214 25.1438V24.8907C97.4214 22.7637 98.1984 20.7177 99.6081 19.1411C99.7329 19.004 99.8648 18.8581 100.035 18.6999C100.218 18.5118 100.426 18.3237 100.672 18.1268L101.652 17.146C101.798 21.2838 105.202 24.6097 109.374 24.6097H110.078V22.5003C110.078 18.5751 107.137 15.3318 103.345 14.8381C103.38 14.7678 103.421 14.6993 103.454 14.629C103.862 13.7852 104.134 12.8782 104.293 11.9536L104.293 11.9527ZM87.9982 30.3586C88.7294 29.7099 89.2497 28.8609 89.5064 27.9258L89.6874 28.2896V30.6592C89.1197 30.5256 88.5572 30.4271 87.9982 30.3586L87.9982 30.3586ZM101.008 26.4123C101.463 26.676 101.841 27.0504 102.101 27.5004L106.415 34.8903L108.586 32.7194C109.069 32.236 109.918 32.236 110.403 32.7194C110.647 32.9655 110.781 33.2872 110.781 33.6299V33.7917C110.781 34.0676 110.691 34.333 110.521 34.5581L107.622 38.427C107.181 39.0194 106.471 39.3745 105.726 39.3745C105.093 39.3745 104.499 39.1284 104.05 38.6801L102.635 37.2651H100.182C100.217 36.9663 100.234 36.6604 100.234 36.3511V33.0464H98.828V36.3511C98.828 36.8468 98.7753 37.3249 98.6698 37.7784C98.4764 38.6433 98.1196 39.4413 97.6098 40.1532C96.3846 41.8671 94.3948 42.8901 92.289 42.8901H91.6562C90.4135 42.8901 89.1812 42.7178 87.9895 42.3768C86.1103 41.8407 84.3367 40.8757 82.8604 39.5837L81.3979 38.304C80.3186 37.36 79.51 36.1436 79.0565 34.7849C78.5942 33.3979 77.8031 32.12 76.7696 31.0864L75.6727 29.9895C74.9801 29.2969 74.4422 28.4954 74.0748 27.6024C73.7039 26.7059 73.5158 25.7584 73.5158 24.7846C73.5158 23.0268 74.1451 21.3253 75.2789 19.998L75.3985 19.8644C76.019 19.1437 76.7696 18.5742 77.6256 18.1769C79.8475 17.1644 82.572 17.5072 84.4584 19.0119C85.615 19.947 86.4272 21.2566 86.7471 22.7085C86.8666 23.2253 87.074 23.7122 87.3676 24.157L87.6488 24.5789L88.1234 25.5773L88.2816 26.6619C88.2658 27.8045 87.7051 28.8785 86.7752 29.5429L83.655 31.7718L84.4707 32.9179L86.2531 31.6453C87.5275 31.6541 88.8529 31.851 90.1958 32.2394C91.4017 32.5875 92.1786 32.9707 92.1857 32.9742L92.815 31.7156C92.7833 31.6998 92.1382 31.3798 91.0941 31.0441V27.9609L89.9691 25.7039C89.8706 25.5 89.8021 25.3136 89.7581 25.1185C89.7107 24.9339 89.6878 24.7423 89.6878 24.5314V23.6314C89.6878 23.0074 90.1958 22.4994 90.8199 22.4994C91.1943 22.4994 91.5441 22.6875 91.7532 23.0021C92.2419 23.7351 92.5003 24.5841 92.5003 25.4595V27.713L95.4271 30.6398C95.8015 31.0142 96.016 31.5345 96.016 32.0689C96.016 32.8353 95.5871 33.5261 94.8997 33.8724L91.2575 35.6935C89.236 36.7042 86.7698 36.9081 84.7483 35.8904C83.8694 35.4544 83.0994 34.8111 82.5176 34.0324L81.3909 34.8726C82.1028 35.8271 83.0485 36.6164 84.119 37.1472C85.2 37.6921 86.3637 37.9681 87.5784 37.9681C89.0672 37.9681 90.5561 37.6166 91.8868 36.9521L95.5307 35.1292C96.6979 34.5421 97.4221 33.3697 97.4221 32.0689C97.4221 31.1636 97.0565 30.2812 96.4219 29.6449L95.935 29.158L96.9563 27.4564C97.0319 27.3246 97.1285 27.1945 97.2551 27.0557C97.8176 26.3947 98.642 26.015 99.5174 26.015C100.041 26.015 100.556 26.1521 101.008 26.4123L101.008 26.4123ZM91.8353 11.9524H92.4998C95.7236 11.9524 98.4096 14.3958 98.784 17.5774H98.1249C94.8729 17.5774 92.1871 15.113 91.8352 11.9524H91.8353ZM109.375 6.32745H111.435C111.092 8.7093 109.039 10.5462 106.563 10.5462H104.502C104.845 8.16435 106.9 6.32745 109.375 6.32745ZM100.937 6.32745C98.4625 6.32745 96.4078 4.49055 96.0649 2.1087H98.125C100.6 2.1087 102.655 3.9456 102.998 6.32745H100.937ZM108.672 22.4995V23.164C105.512 22.8125 103.047 20.1265 103.047 16.8744V16.2099C106.208 16.5615 108.672 19.2474 108.672 22.4995Z" fill="black"/>
<g clip-path="url(#clip0_1_859)">
<path d="M18.9846 40.7816H17.5784C17.6979 38.8656 17.1794 36.9636 16.1018 35.3744C15.0753 33.6606 14.2456 31.8377 13.6269 29.9393C12.2839 25.9456 12.9237 24.209 13.5354 22.6691C14.0206 21.6566 14.1665 20.5158 13.9503 19.4136C13.4581 16.8613 11.9042 14.2809 10.2589 13.2824C9.73154 12.9045 9.06536 12.7797 8.43779 12.9379C6.84169 13.416 5.37217 14.6183 5.03467 15.7504C4.85537 16.3076 4.99072 16.9158 5.38623 17.3465L4.31748 18.2254C3.62137 17.4326 3.39286 16.334 3.71277 15.3285C4.27527 13.4863 6.36354 12.1011 8.05806 11.5949C9.05652 11.333 10.12 11.5158 10.976 12.0941C12.9659 13.2965 14.7659 16.1722 15.3213 19.1537C15.5991 20.5196 15.4321 21.9398 14.8432 23.2037C14.3158 24.61 13.7745 26.0162 14.9557 29.5316C15.5446 31.3386 16.3338 33.0754 17.3112 34.7066C18.5083 36.4996 19.0953 38.6301 18.9846 40.7816L18.9846 40.7816Z" fill="black"/>
<path d="M7.12259 26.9018C4.84447 26.9018 2.99524 24.4268 2.99524 21.3893C2.99524 18.3518 4.85149 15.8768 7.12259 15.8768C9.3937 15.8768 11.25 18.3518 11.25 21.3893C11.25 24.4268 9.40072 26.9018 7.12259 26.9018ZM7.12259 17.2903C5.64605 17.2903 4.40149 19.1676 4.40149 21.3965C4.40149 23.6254 5.62495 25.4958 7.12259 25.4958C8.62024 25.4958 9.8437 23.6114 9.8437 21.3895C9.8437 19.1676 8.59918 17.2833 7.12259 17.2833V17.2903Z" fill="black"/>
<path d="M28.4202 40.7816H27.014C27.014 37.3011 27.5062 36.2181 28.4202 34.2494C29.1339 32.713 29.7579 31.138 30.2905 29.5316C31.4718 26.0159 30.9304 24.6095 30.403 23.2037C29.8194 21.9486 29.6489 20.5406 29.9179 19.1818C30.4874 16.2287 32.2733 13.3246 34.2631 12.1154C35.1174 11.5353 36.1827 11.3543 37.1811 11.6162C38.8827 12.1225 40.9639 13.5076 41.5335 15.3498C41.8534 16.3553 41.6249 17.4539 40.9288 18.2467L39.8389 17.3537C40.2344 16.923 40.3698 16.3148 40.1905 15.7576C39.8459 14.6396 38.3835 13.4373 36.7803 12.9451C36.1616 12.7992 35.5112 12.9275 34.9944 13.2967C33.342 14.2951 31.7881 16.8756 31.303 19.4279C31.0868 20.5301 31.2327 21.6709 31.7178 22.6834C32.3014 24.2162 32.9623 25.9529 31.6264 29.9536C31.0745 31.6306 30.4276 33.2741 29.6858 34.8757C28.828 36.739 28.4202 37.6038 28.4202 40.7819L28.4202 40.7816Z" fill="black"/>
<path d="M38.1235 26.9018C35.8454 26.9018 33.9962 24.4268 33.9962 21.3893C33.9962 18.3518 35.8454 15.8768 38.1235 15.8768C40.4017 15.8768 42.2509 18.3518 42.2509 21.3893C42.2509 24.4268 40.4017 26.9018 38.1235 26.9018ZM38.1235 17.2903C36.647 17.2903 35.4024 19.1676 35.4024 21.3965C35.4024 23.6254 36.647 25.5028 38.1235 25.5028C39.6001 25.5028 40.8446 23.6254 40.8446 21.3965C40.8446 19.1676 39.6001 17.2833 38.1235 17.2833V17.2903Z" fill="black"/>
<path d="M3.20628 21.8951C3.01643 21.7123 -1.40622 17.3528 0.435985 12.8105C2.32738 8.09267 5.99754 6.72827 16.7908 6.72827C17.5009 6.80913 18.1707 7.09917 18.7173 7.55798C19.8001 8.40349 21.1273 8.8781 22.5001 8.915C23.8712 8.87633 25.1948 8.40173 26.2759 7.55798C26.8225 7.09921 27.4923 6.80914 28.2024 6.72827C38.9952 6.72827 42.6659 8.09231 44.5572 12.8105C46.3713 17.3384 42.251 21.6908 42.0752 21.8739L41.0627 20.8966C41.0979 20.8614 44.733 17.0083 43.2565 13.3312C41.7799 9.65404 39.3682 8.12827 28.2094 8.12827C27.7892 8.24604 27.399 8.44994 27.0632 8.72591C25.7519 9.73139 24.1523 10.2904 22.4998 10.322C20.851 10.2921 19.2531 9.7349 17.9436 8.73298C17.6078 8.457 17.2176 8.2531 16.7974 8.13533C5.62485 8.13533 3.21285 9.66812 1.7436 13.3594C0.274345 17.0506 4.14831 20.8478 4.2186 20.8829L3.20628 21.8951Z" fill="black"/>
<path d="M29.8265 7.97366C29.3413 6.49712 26.5991 4.92212 22.5 4.92212C18.4922 4.92212 15.7428 6.44789 15.1875 7.88226L13.8797 7.36899C14.7657 5.10495 18.2813 3.51587 22.4999 3.51587C26.8242 3.51587 30.3961 5.16822 31.1764 7.53774L29.8265 7.97366Z" fill="black"/>
<path d="M10.3851 18.4924L9.05624 18.0354C9.09843 17.9089 10.1812 14.8573 13.2258 14.8573V16.2636C11.1726 16.2706 10.3992 18.4713 10.3851 18.4924Z" fill="black"/>
<path d="M34.8611 18.4993C34.8611 18.4079 34.0525 16.2704 32.0486 16.2704V14.8641C35.0931 14.8641 36.1759 17.9087 36.2181 18.0423L34.8611 18.4993Z" fill="black"/>
<path d="M21.0938 40.7816H19.6876C19.6876 35.9301 19.2587 35.0652 18.4149 33.3426C17.9684 32.4567 17.5694 31.5496 17.2196 30.6215C16.2142 27.9496 16.3126 27.2254 16.6431 25.6994C16.9665 24.2756 17.1406 22.8219 17.1634 21.3611C17.3462 15.8207 14.4493 13.1135 14.4141 13.0852C14.379 13.0568 12.2204 11.4539 8.5079 12.9094L7.99463 11.6016C12.4946 9.83677 15.2086 11.9251 15.3211 12.0165C15.4336 12.1079 18.7664 15.2297 18.5625 21.4102C18.5414 22.9606 18.3603 24.504 18.0211 26.0155C17.7398 27.3093 17.6414 27.7382 18.5414 30.1288C18.8771 31.0112 19.2603 31.8743 19.6875 32.7163C20.5945 34.5796 21.0937 35.6061 21.0937 40.7812L21.0938 40.7816Z" fill="black"/>
<path d="M26.3039 40.7814H24.8976C24.8976 34.9242 24.9961 34.4954 26.0929 31.7324C26.2687 31.2824 26.4796 30.755 26.7187 30.1222C27.6187 27.7316 27.5202 27.3097 27.239 26.009C26.8962 24.5025 26.7099 22.9627 26.6835 21.4176C26.6466 20.4016 26.7099 19.3839 26.8733 18.3801L28.2796 18.6122C28.1302 19.5227 28.0722 20.4455 28.1038 21.3684C28.1302 22.8292 28.306 24.2829 28.6312 25.7067C28.9616 27.2254 29.0601 27.9426 28.0546 30.6288C27.8156 31.2757 27.6046 31.803 27.4218 32.267C26.4093 34.7561 26.3038 35.0233 26.3038 40.782L26.3039 40.7814Z" fill="black"/>
<path d="M28.4837 17.5287L27.1196 17.1772C27.2849 16.532 27.4993 15.8993 27.7595 15.2858L29.0532 15.8412C28.8212 16.3879 28.6296 16.9522 28.4837 17.5287L28.4837 17.5287Z" fill="black"/>
<path d="M29.4822 14.9627L28.2447 14.2596C28.6719 13.4317 29.2256 12.6758 29.883 12.0166C30.0306 11.9533 32.7447 9.84396 37.2657 11.6088L36.7524 12.9166C33.0259 11.4541 30.8673 13.0783 30.8111 13.1205C30.2855 13.6707 29.8372 14.2895 29.4822 14.9627L29.4822 14.9627Z" fill="black"/>
</g>
<path d="M68.2754 71H69.5V67.8535H70.9766C71.9785 67.8535 72.7578 67.6016 73.3145 67.0977C73.8652 66.5938 74.1465 65.8906 74.1465 64.9883C74.1465 64.0625 73.8594 63.3535 73.291 62.8613C72.7227 62.3691 71.9492 62.1172 70.9766 62.1172H68.2754V71ZM69.5 66.6934V63.2832H70.9531C71.5977 63.2832 72.084 63.4355 72.418 63.7285C72.752 64.0273 72.9219 64.4492 72.9219 65C72.9219 65.5742 72.7461 66.002 72.3945 66.2773C72.043 66.5586 71.5625 66.6934 70.9531 66.6934H69.5ZM75.4941 69.5469C75.4941 70.0625 75.623 70.4609 75.8926 70.7422C76.1621 71.0234 76.5312 71.1582 77.0059 71.1582C77.1816 71.1582 77.3926 71.1289 77.6387 71.0703V70.0625C77.5684 70.0742 77.4688 70.0742 77.3516 70.0742C77.0762 70.0742 76.8887 70.0098 76.7891 69.8691C76.6895 69.7344 76.6426 69.5059 76.6426 69.1895V62.1172H75.4941V69.5469ZM78.248 68.1816C78.248 68.5918 78.3242 68.9844 78.4824 69.3535C78.6348 69.7227 78.8457 70.0391 79.1152 70.3027C79.3848 70.5664 79.7012 70.7773 80.0762 70.9297C80.4453 71.082 80.8379 71.1582 81.2598 71.1582C82.0566 71.1582 82.6953 70.8828 83.1699 70.3262V71H84.3184V65.2988H83.1699V66.0312C82.6777 65.4746 82.0449 65.1934 81.2598 65.1934C80.8496 65.1934 80.457 65.2754 80.0879 65.4277C79.7129 65.5801 79.3965 65.791 79.127 66.0547C78.8574 66.3184 78.6406 66.6348 78.4824 67.0039C78.3242 67.3789 78.248 67.7715 78.248 68.1816ZM79.3848 68.1816C79.3848 67.6543 79.5605 67.2031 79.9238 66.834C80.2812 66.4707 80.7266 66.2832 81.2598 66.2832C81.7871 66.2832 82.2383 66.4707 82.6016 66.8398C82.9648 67.2148 83.1465 67.6602 83.1465 68.1816C83.1465 68.709 82.9648 69.1543 82.6074 69.5234C82.2441 69.8926 81.7988 70.0742 81.2598 70.0742C80.7266 70.0742 80.2812 69.8926 79.9238 69.5293C79.5605 69.166 79.3848 68.7207 79.3848 68.1816ZM85.7598 68.1816C85.7598 68.7207 85.8887 69.2188 86.1582 69.6758C86.4277 70.1328 86.791 70.4961 87.248 70.7598C87.7051 71.0293 88.209 71.1582 88.748 71.1582C89.2754 71.1582 89.7676 71.0352 90.2246 70.7773C90.6816 70.5195 91.0449 70.1738 91.3145 69.7402L90.3535 69.1777C90.1895 69.459 89.9668 69.6758 89.6914 69.834C89.4102 69.998 89.1055 70.0742 88.7715 70.0742C88.2441 70.0742 87.8047 69.8926 87.4414 69.5234C87.0781 69.1543 86.8965 68.709 86.8965 68.1934C86.8965 67.6777 87.0723 67.2324 87.4355 66.8516C87.793 66.4766 88.2324 66.2832 88.748 66.2832C89.0703 66.2832 89.3691 66.3652 89.6504 66.5234C89.9316 66.6816 90.1543 66.8926 90.3184 67.1504L91.291 66.5938C91.0215 66.1719 90.6582 65.832 90.207 65.5742C89.7559 65.3223 89.2695 65.1934 88.748 65.1934C88.1973 65.1934 87.6934 65.3281 87.2363 65.5977C86.7793 65.8672 86.416 66.2305 86.1523 66.6875C85.8887 67.1445 85.7598 67.6426 85.7598 68.1816ZM92.0996 68.1816C92.0996 69.0195 92.3867 69.7227 92.9668 70.2969C93.5469 70.8711 94.2559 71.1582 95.0879 71.1582C95.5801 71.1582 96.0371 71.0527 96.4648 70.8418C96.8867 70.6309 97.2324 70.332 97.502 69.957L96.6816 69.3301C96.5059 69.5762 96.2715 69.7695 95.9902 69.9043C95.7031 70.0449 95.4043 70.1094 95.0879 70.1094C94.6074 70.1094 94.2031 69.9688 93.8633 69.6758C93.5234 69.3828 93.3184 69.0137 93.2363 68.5625H97.9062C97.918 68.4102 97.9297 68.2754 97.9297 68.1699C97.9297 67.7773 97.8535 67.3965 97.707 67.0332C97.5605 66.6699 97.3613 66.3535 97.1094 66.084C96.8516 65.8145 96.5469 65.6035 96.1836 65.4395C95.8203 65.2754 95.4277 65.1934 95.0176 65.1934C94.4609 65.1934 93.957 65.334 93.5117 65.6094C93.0605 65.8848 92.7148 66.248 92.4688 66.7051C92.2227 67.1621 92.0996 67.6543 92.0996 68.1816ZM93.2773 67.6543C93.3828 67.2441 93.5879 66.9043 93.9043 66.6406C94.2207 66.3828 94.5957 66.248 95.0293 66.248C95.4746 66.248 95.8555 66.3828 96.1719 66.6523C96.4883 66.9219 96.6875 67.2559 96.7578 67.6543H93.2773ZM99.3418 71H100.49V68.0938C100.49 66.8867 100.971 66.2832 101.943 66.2832C102.869 66.2832 103.338 66.8633 103.338 68.0117V71H104.498V67.7715C104.498 66.916 104.281 66.2715 103.854 65.8379C103.426 65.4102 102.857 65.1934 102.148 65.1934C101.768 65.1934 101.451 65.2578 101.193 65.3809C100.936 65.5039 100.701 65.6797 100.49 65.9141V65.2988H99.3418V71ZM105.43 66.3945H106.326V69.248C106.326 69.4648 106.338 69.6582 106.361 69.8281C106.385 70.0039 106.432 70.1738 106.502 70.3438C106.572 70.5195 106.672 70.6602 106.789 70.7715C106.906 70.8887 107.07 70.9824 107.27 71.0527C107.469 71.123 107.709 71.1582 107.984 71.1582C108.359 71.1582 108.664 71.1172 108.887 71.0234V69.9922C108.746 70.0508 108.535 70.0742 108.248 70.0742C107.955 70.0742 107.756 70.0039 107.65 69.8516C107.545 69.7051 107.492 69.459 107.492 69.1133V66.3945H109.039V65.2988H107.492V63.3652H106.326V65.2988H105.43V66.3945ZM109.713 68.1816C109.713 68.5918 109.789 68.9844 109.947 69.3535C110.1 69.7227 110.311 70.0391 110.58 70.3027C110.85 70.5664 111.166 70.7773 111.541 70.9297C111.91 71.082 112.303 71.1582 112.725 71.1582C113.521 71.1582 114.16 70.8828 114.635 70.3262V71H115.783V65.2988H114.635V66.0312C114.143 65.4746 113.51 65.1934 112.725 65.1934C112.314 65.1934 111.922 65.2754 111.553 65.4277C111.178 65.5801 110.861 65.791 110.592 66.0547C110.322 66.3184 110.105 66.6348 109.947 67.0039C109.789 67.3789 109.713 67.7715 109.713 68.1816ZM110.85 68.1816C110.85 67.6543 111.025 67.2031 111.389 66.834C111.746 66.4707 112.191 66.2832 112.725 66.2832C113.252 66.2832 113.703 66.4707 114.066 66.8398C114.43 67.2148 114.611 67.6602 114.611 68.1816C114.611 68.709 114.43 69.1543 114.072 69.5234C113.709 69.8926 113.264 70.0742 112.725 70.0742C112.191 70.0742 111.746 69.8926 111.389 69.5293C111.025 69.166 110.85 68.7207 110.85 68.1816Z" fill="#77736E"/>
<path d="M6.06836 67.0742C6.06836 68.3867 6.4082 69.4004 7.09375 70.1035C7.7793 70.8066 8.6875 71.1582 9.82422 71.1582C10.375 71.1582 10.8848 71.0762 11.3418 70.9004C11.7988 70.7246 12.1914 70.4727 12.5254 70.1328C12.8594 69.7988 13.1172 69.3711 13.3047 68.8496C13.4863 68.334 13.5801 67.7422 13.5801 67.0742V62.1172H12.3555V66.6465C12.3555 68.9082 11.5117 70.0391 9.82422 70.0391C8.14258 70.0391 7.30469 68.9082 7.30469 66.6465V62.1172H6.06836V67.0742ZM14.7578 66.3945H15.6543V69.248C15.6543 69.4648 15.666 69.6582 15.6895 69.8281C15.7129 70.0039 15.7598 70.1738 15.8301 70.3438C15.9004 70.5195 16 70.6602 16.1172 70.7715C16.2344 70.8887 16.3984 70.9824 16.5977 71.0527C16.7969 71.123 17.0371 71.1582 17.3125 71.1582C17.6875 71.1582 17.9922 71.1172 18.2148 71.0234V69.9922C18.0742 70.0508 17.8633 70.0742 17.5762 70.0742C17.2832 70.0742 17.084 70.0039 16.9785 69.8516C16.873 69.7051 16.8203 69.459 16.8203 69.1133V66.3945H18.3672V65.2988H16.8203V63.3652H15.6543V65.2988H14.7578V66.3945ZM19.041 68.1816C19.041 69.0195 19.3281 69.7227 19.9082 70.2969C20.4883 70.8711 21.1973 71.1582 22.0293 71.1582C22.5215 71.1582 22.9785 71.0527 23.4062 70.8418C23.8281 70.6309 24.1738 70.332 24.4434 69.957L23.623 69.3301C23.4473 69.5762 23.2129 69.7695 22.9316 69.9043C22.6445 70.0449 22.3457 70.1094 22.0293 70.1094C21.5488 70.1094 21.1445 69.9688 20.8047 69.6758C20.4648 69.3828 20.2598 69.0137 20.1777 68.5625H24.8477C24.8594 68.4102 24.8711 68.2754 24.8711 68.1699C24.8711 67.7773 24.7949 67.3965 24.6484 67.0332C24.502 66.6699 24.3027 66.3535 24.0508 66.084C23.793 65.8145 23.4883 65.6035 23.125 65.4395C22.7617 65.2754 22.3691 65.1934 21.959 65.1934C21.4023 65.1934 20.8984 65.334 20.4531 65.6094C20.002 65.8848 19.6562 66.248 19.4102 66.7051C19.1641 67.1621 19.041 67.6543 19.041 68.1816ZM20.2188 67.6543C20.3242 67.2441 20.5293 66.9043 20.8457 66.6406C21.1621 66.3828 21.5371 66.248 21.9707 66.248C22.416 66.248 22.7969 66.3828 23.1133 66.6523C23.4297 66.9219 23.6289 67.2559 23.6992 67.6543H20.2188ZM26.2832 71H27.4316V68.0469C27.4316 67.7773 27.4551 67.5488 27.5137 67.3555C27.5723 67.1621 27.6777 66.9805 27.8301 66.8105C27.9824 66.6406 28.2051 66.5117 28.5098 66.4238C28.8145 66.3418 29.1953 66.2949 29.6523 66.2949V65.1934C29.0664 65.1934 28.6211 65.2461 28.3047 65.3516C27.9883 65.457 27.6953 65.668 27.4316 65.9844V65.2988H26.2832V71ZM30.6484 68.6855C30.6484 70.3379 31.5098 71.1582 33.2441 71.1582C34.9668 71.1582 35.834 70.3379 35.834 68.6855V65.2988H34.6855V68.3574C34.6855 68.6445 34.6621 68.8848 34.627 69.084C34.5859 69.2832 34.5156 69.459 34.4102 69.6113C34.3047 69.7695 34.1582 69.8867 33.9648 69.9629C33.7715 70.0391 33.5312 70.0742 33.2441 70.0742C32.9512 70.0742 32.7109 70.0391 32.5234 69.9629C32.3301 69.8867 32.1836 69.7695 32.084 69.6113C31.9785 69.459 31.9082 69.2832 31.873 69.084C31.832 68.8848 31.8145 68.6445 31.8145 68.3574V65.2988H30.6484V68.6855ZM37.0996 70.4141C37.75 70.9121 38.4766 71.1582 39.2793 71.1582C39.9238 71.1582 40.4336 71 40.8203 70.6836C41.2012 70.3672 41.3945 69.9395 41.3945 69.3945C41.3945 69.1191 41.3359 68.8789 41.2305 68.668C41.1191 68.4629 40.9785 68.2988 40.8086 68.1816C40.6328 68.0645 40.4453 67.959 40.2344 67.8711C40.0234 67.7891 39.8125 67.7129 39.6016 67.6543C39.3906 67.5957 39.1973 67.5312 39.0273 67.4668C38.8516 67.4023 38.7109 67.3203 38.6055 67.2148C38.4941 67.1152 38.4414 66.9922 38.4414 66.8457C38.4414 66.6816 38.5117 66.541 38.6523 66.4238C38.793 66.3066 38.998 66.248 39.2676 66.248C39.7363 66.248 40.1699 66.4004 40.5801 66.6934L41.1895 65.8379C40.6562 65.4102 40.0117 65.1934 39.2559 65.1934C38.6641 65.1934 38.1895 65.3633 37.832 65.6914C37.4746 66.0254 37.2988 66.4531 37.2988 66.9805C37.2988 67.2617 37.3516 67.502 37.4629 67.7012C37.5684 67.9062 37.709 68.0645 37.8848 68.1758C38.0605 68.2871 38.2539 68.3809 38.4648 68.4629C38.6758 68.5449 38.8867 68.6094 39.0977 68.6621C39.3086 68.7207 39.4961 68.7793 39.6719 68.8379C39.8477 68.8965 39.9883 68.9785 40.0996 69.084C40.2051 69.1895 40.2637 69.3125 40.2637 69.4648C40.2637 69.6641 40.1758 69.8164 40.0117 69.9336C39.8477 70.0508 39.6133 70.1094 39.3145 70.1094C38.7285 70.1094 38.1953 69.916 37.7207 69.5234L37.0996 70.4141Z" fill="#77736E"/>
<defs>
<clipPath id="clip0_1_859">
<rect width="45" height="45" fill="white"/>
</clipPath>
</defs>
</svg>
