<svg width="14" height="10" viewBox="0 0 14 10" fill="none" xmlns="http://www.w3.org/2000/svg">
<path fill-rule="evenodd" clip-rule="evenodd" d="M13.7658 0C12.4232 0.157738 11.7981 1.65526 10.8493 2.14286C10.6101 2.26587 10.1906 2.55208 10.0327 3.09524C10.0521 2.83681 9.61853 3.04117 9.44938 2.97619C9.24182 3.2252 9.54076 3.42361 9.33272 3.57143C9.16648 3.21181 8.88455 3.70585 8.98274 4.16667C8.05384 4.00347 7.13564 5.50496 6.88288 6.30952C6.69914 6.29911 6.7915 6.00595 6.5329 6.07143C6.0614 6.86062 5.35513 7.40923 4.78302 8.09524C3.22222 7.26587 2.24131 4.60665 0.349977 4.7619C0.118603 4.84325 0.422889 5.47123 0 5.35714C1.17923 7.28869 2.8562 8.7123 4.66636 10C6.40215 8.91419 7.52207 7.19941 8.98274 5.83333C10.4842 4.70685 11.3514 2.93304 12.9491 1.90476C13.162 1.20933 14.0399 1.19246 13.9986 0.238095C13.8683 0.212797 13.8173 0.106151 13.7658 0Z" fill="#96B5AB"/>
</svg>
